<?xml version="1.0" standalone="no"?><!DOCTYPE svg PUBLIC "-//W3C//DTD SVG 1.1//EN" "http://www.w3.org/Graphics/SVG/1.1/DTD/svg11.dtd"><svg t="1650894275833" class="icon" viewBox="0 0 1024 1024" version="1.1" xmlns="http://www.w3.org/2000/svg" p-id="11417" xmlns:xlink="http://www.w3.org/1999/xlink" width="25" height="25"><defs><style type="text/css">@font-face { font-family: feedback-iconfont; src: url("//at.alicdn.com/t/font_1031158_u69w8yhxdu.woff2?t=1630033759944") format("woff2"), url("//at.alicdn.com/t/font_1031158_u69w8yhxdu.woff?t=1630033759944") format("woff"), url("//at.alicdn.com/t/font_1031158_u69w8yhxdu.ttf?t=1630033759944") format("truetype"); }
</style></defs><path d="M283.692522 60.059826l623.304348 356.173913c29.740522 16.962783 17.67513 62.330435-16.562087 62.330435H267.130435a33.391304 33.391304 0 0 1-33.391305-33.391304V89.043478a33.391304 33.391304 0 0 1 49.953392-28.93913z m16.829217 86.505739V411.826087h464.139131L300.521739 146.565565zM283.692522 963.895652l623.304348-356.173913c29.740522-17.007304 17.67513-62.374957-16.562087-62.374956H267.130435a33.391304 33.391304 0 0 0-33.391305 33.391304v356.173913a33.391304 33.391304 0 0 0 49.953392 28.983652z m16.829217-86.505739v-265.260522h464.183652L300.521739 877.389913z" fill="#cccccc" p-id="11418"></path></svg>
