<?xml version="1.0" standalone="no"?><!DOCTYPE svg PUBLIC "-//W3C//DTD SVG 1.1//EN" "http://www.w3.org/Graphics/SVG/1.1/DTD/svg11.dtd"><svg t="1650808540648" class="icon" viewBox="0 0 1024 1024" version="1.1" xmlns="http://www.w3.org/2000/svg" p-id="2817" xmlns:xlink="http://www.w3.org/1999/xlink" width="200" height="200"><defs><style type="text/css"></style></defs><path d="M554.666667 768v170.666667h-42.666667v-170.666667h42.666667z m85.333333-589.098667a42.666667 42.666667 0 0 1 39.594667 26.794667l278.314666 589.141333A42.666667 42.666667 0 0 1 918.314667 853.333333H640a42.666667 42.666667 0 0 1-42.666667-42.666666V221.568a42.666667 42.666667 0 0 1 42.666667-42.666667z m-197.504 3.029334a42.666667 42.666667 0 0 1 26.837333 39.637333V810.666667a42.666667 42.666667 0 0 1-42.666666 42.666666H148.352a42.666667 42.666667 0 0 1-39.594667-58.496L387.072 205.653333a42.666667 42.666667 0 0 1 55.466667-23.765333zM426.666667 221.568L148.352 810.666667H426.666667V221.568z m213.333333 0V810.666667h278.314667L640 221.568zM554.666667 597.333333v128h-42.666667v-128h42.666667z m0-170.666666v128h-42.666667v-128h42.666667z m0-170.666667v128h-42.666667V256h42.666667z m0-170.666667v128h-42.666667V85.333333h42.666667z" p-id="2818"></path></svg>