<?xml version="1.0" standalone="no"?><!DOCTYPE svg PUBLIC "-//W3C//DTD SVG 1.1//EN" "http://www.w3.org/Graphics/SVG/1.1/DTD/svg11.dtd"><svg t="1651070976094" class="icon" viewBox="0 0 1024 1024" version="1.1" xmlns="http://www.w3.org/2000/svg" p-id="31321" width="180" height="180" xmlns:xlink="http://www.w3.org/1999/xlink"><defs><style type="text/css">@font-face { font-family: feedback-iconfont; src: url("//at.alicdn.com/t/font_1031158_u69w8yhxdu.woff2?t=1630033759944") format("woff2"), url("//at.alicdn.com/t/font_1031158_u69w8yhxdu.woff?t=1630033759944") format("woff"), url("//at.alicdn.com/t/font_1031158_u69w8yhxdu.ttf?t=1630033759944") format("truetype"); }
</style></defs><path d="M230.912 392.704V143.872c0-11.264 6.144-21.504 16.384-28.16 12.8-7.68 29.696-8.192 43.008-1.536L774.144 363.52c14.336 7.168 21.504 22.016 17.92 36.864-4.096 15.872-19.456 27.136-38.4 27.136H270.336c-22.016-0.512-39.424-15.36-39.424-34.816z m46.08-233.472v221.696h430.592L276.992 159.232zM230.912 880.128v-249.344c0-18.944 17.408-34.304 39.424-34.304h483.84c18.944 0 34.304 11.264 38.4 27.136 3.584 14.336-3.584 29.184-17.92 36.864l-483.84 249.344c-13.312 7.168-30.208 6.144-43.008-1.536-10.752-6.144-16.896-16.896-16.896-28.16z m46.08-237.056v221.696l430.592-221.696H276.992zM876.544 512H147.456M845.824 501.76h30.72v20.48h-30.72zM238.592 522.24v-20.48h60.928v20.48H238.592z m121.344 0v-20.48h60.928v20.48H359.936z m121.856 0v-20.48H542.72v20.48H481.792z m121.344 0v-20.48h60.928v20.48h-60.928z m121.344 0v-20.48h60.928v20.48h-60.928zM147.456 501.76h30.72v20.48h-30.72z" p-id="31322" fill="#ffffff"></path></svg>
