<?xml version="1.0" standalone="no"?><!DOCTYPE svg PUBLIC "-//W3C//DTD SVG 1.1//EN" "http://www.w3.org/Graphics/SVG/1.1/DTD/svg11.dtd"><svg t="1650893427914" class="icon" viewBox="0 0 1024 1024" version="1.1" xmlns="http://www.w3.org/2000/svg" p-id="11119" width="25" height="25" xmlns:xlink="http://www.w3.org/1999/xlink"><defs><style type="text/css">@font-face { font-family: feedback-iconfont; src: url("//at.alicdn.com/t/font_1031158_u69w8yhxdu.woff2?t=1630033759944") format("woff2"), url("//at.alicdn.com/t/font_1031158_u69w8yhxdu.woff?t=1630033759944") format("woff"), url("//at.alicdn.com/t/font_1031158_u69w8yhxdu.ttf?t=1630033759944") format("truetype"); }
</style></defs><path d="M39.005091 844.660364l372.363636-698.181819c17.128727-32.069818 65.722182-19.921455 65.722182 16.430546v698.181818a34.909091 34.909091 0 0 1-34.909091 34.909091h-372.363636a34.909091 34.909091 0 0 1-30.813091-51.339636z m88.901818-18.478546H407.272727V302.452364L127.953455 826.181818zM984.901818 844.660364l-372.363636-698.181819c-17.082182-32.069818-65.675636-19.921455-65.675637 16.430546v698.181818c0 19.269818 15.639273 34.909091 34.909091 34.909091h372.363637a34.909091 34.909091 0 0 0 30.813091-51.339636z m-88.901818-18.478546h-279.319273V302.452364l279.272728 523.729454z" fill="#cccccc" p-id="11120"></path></svg>
